<?xml version="1.0"?>
<svg xmlns="http://www.w3.org/2000/svg" height="512px" viewBox="0 -22 512 511" width="512px" class=""><g transform="matrix(0.80131, 0, 0, 0.80131, 50.8646, 46.3941)"><path d="m372.378906 41.265625c40.621094-1.097656 51.289063-39.765625 82.621094-34.433594 31.335938 5.335938 57 48.667969 57 86.667969s-39.523438 42.984375-81.929688 15.492188zm0 0" fill="#ffaacb" data-original="#FFAACB" class="" style="fill:#BC8927" data-old_color="#B48B3C"/><path d="m139.621094 41.265625c-40.621094-1.097656-51.289063-39.765625-82.621094-34.433594-31.332031 5.335938-57 48.667969-57 86.667969s39.523438 42.984375 81.929688 15.492188zm0 0" fill="#ffaacb" data-original="#FFAACB" class="" style="fill:#BC8927" data-old_color="#B48B3C"/><path d="m30.90625 93.5c0-33.792969 20.300781-71.777344 46.832031-83.53125-6.132812-2.996094-12.765625-4.492188-20.738281-3.132812-31.332031 5.332031-57 48.664062-57 86.664062 0 27.878906 21.28125 37.960938 49.359375 30.511719-11.367187-4.300781-18.453125-14.441407-18.453125-30.511719zm0 0" fill="#ff8cb5" data-original="#FF8CB5" class="active-path" style="fill:#BC8927" data-old_color="#EEEDED"/><path d="m435.320312 56.882812c-8.472656-10.441406-17.472656-19.96875-26.949218-28.585937-9.535156 6.753906-20.617188 12.554687-35.992188 12.96875l57.691406 67.726563c17.1875 11.140624 33.898438 16.945312 47.699219 17.382812-11.847656-25.894531-26.136719-49.390625-42.449219-69.492188zm0 0" fill="#ff8cb5" data-original="#FF8CB5" class="active-path" style="fill:#BC8927" data-old_color="#EEEDED"/><path d="m256 466.5c-.53125 0-1.066406-.003906-1.597656-.003906-54.847656-.375-110.796875-18.65625-154.71875-51.628906-63.9375-48-79.875-98.980469-67.441406-175.15625 19.042968-116.664063 88.863281-239.210938 223.757812-239.210938s204.714844 122.546875 223.757812 239.210938c12.433594 76.175781-3.503906 127.15625-67.441406 175.15625-43.921875 32.972656-99.871094 51.253906-154.71875 51.628906-.53125 0-1.066406.003906-1.597656.003906zm0 0" fill="#ffaacb" data-original="#FFAACB" class="" style="fill:#BC8927" data-old_color="#B48B3C"/><path d="m140.890625 414.867188c-63.9375-48-79.871094-98.980469-67.441406-175.15625 18.050781-110.570313 81.714843-226.402344 203.15625-238.207032-6.695313-.652344-13.558594-1.003906-20.605469-1.003906-134.894531 0-204.714844 122.546875-223.757812 239.210938-12.433594 76.175781 3.503906 127.15625 67.441406 175.15625 43.921875 32.972656 99.871094 51.253906 154.71875 51.628906.53125 0 1.066406.003906 1.597656.003906s1.066406-.003906 1.597656-.003906c6.328125-.046875 12.667969-.335938 19.007813-.851563-48.589844-3.949219-96.859375-21.609375-135.714844-50.777343zm0 0" fill="#ff8cb5" data-original="#FF8CB5" class="active-path" style="fill:#BC8927" data-old_color="#EEEDED"/><path d="m256 181.5c-82 0-73.5 95.5-73.5 95.5 0 20.183594 19.140625 34.875 38.640625 29.65625l15.199219-4.070312c6.410156-1.714844 13.023437-2.585938 19.660156-2.585938s13.246094.871094 19.660156 2.585938l15.199219 4.070312c19.5 5.21875 38.640625-9.472656 38.640625-29.65625 0 0 8.5-95.5-73.5-95.5zm0 0" fill="#ff8cb5" data-original="#FF8CB5" class="active-path" style="fill:#BC8927" data-old_color="#EEEDED"/><g fill="#454f59"><path d="m298.667969 242.511719c-4.152344-12.765625-13.933594-21.027344-21.851563-18.453125-7.914062 2.574218-10.96875 15.007812-6.820312 27.773437 4.152344 12.765625 13.933594 21.023438 21.851562 18.449219 7.914063-2.574219 10.96875-15.007812 6.820313-27.769531zm0 0" data-original="#000000" class="" style="fill:#F6F6F6" data-old_color="#F4F3F3"/><path d="m213.328125 242.507812c-4.152344 12.761719-1.097656 25.195313 6.820313 27.769532 7.917968 2.574218 17.699218-5.683594 21.847656-18.449219 4.152344-12.765625 1.097656-25.199219-6.820313-27.773437-7.917969-2.574219-17.699219 5.6875-21.847656 18.453124zm0 0" data-original="#000000" class="" style="fill:#F6F6F6" data-old_color="#F4F3F3"/><path d="m356.292969 223.242188c-4.269531 0-7.726563-3.460938-7.726563-7.726563v-19.5c0-4.269531 3.457032-7.726563 7.726563-7.726563 4.265625 0 7.726562 3.457032 7.726562 7.726563v19.5c0 4.265625-3.460937 7.726563-7.726562 7.726563zm0 0" data-original="#000000" class="" style="fill:#F6F6F6" data-old_color="#F4F3F3"/></g><path d="m389.570312 271.90625h-26.558593c-4.265625 0-7.726563-3.460938-7.726563-7.726562 0-4.269532 3.460938-7.726563 7.726563-7.726563h26.558593c4.269532 0 7.726563 3.457031 7.726563 7.726563 0 4.265624-3.457031 7.726562-7.726563 7.726562zm0 0" fill="#ff8cb5" data-original="#FF8CB5" class="active-path" style="fill:#BC8927" data-old_color="#EEEDED"/><path d="m155.707031 223.242188c-4.265625 0-7.726562-3.460938-7.726562-7.726563v-19.5c0-4.269531 3.460937-7.726563 7.726562-7.726563 4.269531 0 7.726563 3.457032 7.726563 7.726563v19.5c0 4.265625-3.457032 7.726563-7.726563 7.726563zm0 0" fill="#454f59" data-original="#454F59" class="" style="fill:#F0F0F0" data-old_color="#EFEFF0"/><path d="m148.988281 271.90625h-26.558593c-4.269532 0-7.726563-3.460938-7.726563-7.726562 0-4.269532 3.457031-7.726563 7.726563-7.726563h26.558593c4.265625 0 7.726563 3.457031 7.726563 7.726563 0 4.265624-3.460938 7.726562-7.726563 7.726562zm0 0" fill="#ff8cb5" data-original="#FF8CB5" class="active-path" style="fill:#BC8927" data-old_color="#EEEDED"/><path d="m256 350.804688c-9.222656 0-17.878906-3.855469-23.757812-10.578126-2.804688-3.214843-2.480469-8.097656.734374-10.902343 3.214844-2.808594 8.09375-2.484375 10.902344.730469 2.941406 3.363281 7.359375 5.296874 12.121094 5.296874s9.179688-1.933593 12.121094-5.296874c2.808594-3.214844 7.6875-3.539063 10.902344-.730469 3.214843 2.804687 3.539062 7.6875.734374 10.902343-5.878906 6.71875-14.535156 10.578126-23.757812 10.578126zm0 0" fill="#454f59" data-original="#454F59" class="" style="fill:#F0F0F0" data-old_color="#EFEFF0"/></g> </svg>
